<?xml version="1.0" encoding="UTF-8" standalone="no"?><!DOCTYPE svg PUBLIC "-//W3C//DTD SVG 1.1//EN" "http://www.w3.org/Graphics/SVG/1.1/DTD/svg11.dtd"><svg width="100%" height="100%" viewBox="0 0 1339 698" version="1.1" xmlns="http://www.w3.org/2000/svg" xmlns:xlink="http://www.w3.org/1999/xlink" xml:space="preserve" xmlns:serif="http://www.serif.com/" style="fill-rule:evenodd;clip-rule:evenodd;stroke-linejoin:round;stroke-miterlimit:2;"><rect id="Artboard1" x="0" y="0" width="1338.75" height="697.5" style="fill:none;"/><g><path d="M251.122,66.75l7.957,0l18.028,18.028c-0.679,0.509 -1.33,1.072 -1.948,1.689c-0.736,0.736 -1.395,1.52 -1.977,2.342l-22.06,-22.059Zm170.647,0l18.027,18.027c-0.68,0.509 -1.332,1.072 -1.95,1.69c-0.735,0.736 -1.394,1.52 -1.976,2.341l-22.058,-22.058l7.957,0Zm162.684,0l18.028,18.028c-0.679,0.509 -1.331,1.072 -1.948,1.689c-0.736,0.736 -1.395,1.52 -1.977,2.343l-22.059,-22.06l7.956,0Zm709.224,564l-23.153,-23.153c0.75,-0.547 1.468,-1.159 2.145,-1.836c0.676,-0.676 1.287,-1.393 1.833,-2.143l27.132,27.132l-7.957,0Zm-162.687,0l-23.154,-23.154c0.75,-0.547 1.467,-1.158 2.143,-1.835c0.677,-0.677 1.289,-1.394 1.835,-2.144l27.133,27.133l-7.957,0Zm-162.689,0l-23.154,-23.153c0.751,-0.547 1.468,-1.159 2.145,-1.836c0.677,-0.676 1.288,-1.393 1.834,-2.142l27.131,27.131l-7.956,0Zm-162.685,0l-23.154,-23.154c0.75,-0.547 1.467,-1.158 2.144,-1.835c0.676,-0.677 1.288,-1.394 1.834,-2.144l27.133,27.133l-7.957,0Zm-709.223,-564l18.027,18.028c-0.679,0.509 -1.33,1.072 -1.947,1.689c-0.737,0.736 -1.396,1.52 -1.978,2.342l-22.059,-22.059l7.957,0Zm570.363,391.361l-43.004,43.004c4.613,6.331 4.578,15.005 -0.105,21.304l-0,-29.155l35.153,-35.153l7.956,-0Zm-195.949,32.012l-18.181,18.181c-1.098,1.098 -2.879,1.099 -3.978,-0l-12.091,-12.09c1.27,-1.38 2.524,-2.779 3.76,-4.197l10.32,10.319l20.17,-20.17l0,7.957Zm286.514,92.332l-19.276,-19.276l-2.156,7.036c-0.393,1.281 -1.634,2.107 -2.968,1.975c-1.333,-0.133 -2.388,-1.187 -2.521,-2.52c-0.501,-5.013 -2.049,-8.932 -4.805,-11.69c-2.756,-2.757 -6.673,-4.306 -11.688,-4.804c-1.332,-0.133 -2.386,-1.185 -2.521,-2.516c-0.135,-1.331 0.686,-2.573 1.964,-2.97l7.023,-2.184l-31.823,-31.823c-1.098,-1.097 -1.098,-2.88 -0,-3.978l20.258,-20.258l0.076,-0.079l13.178,-13.175l0.009,-0.009c1.089,-1.079 2.842,-1.088 3.942,-0.018c-0,0 3.752,3.66 8.009,1.647l-22.243,-22.24c2.336,-0.312 4.649,-0.653 6.939,-1.023l19.279,19.278c1.968,-4.215 -1.706,-7.893 -1.706,-7.893c-1.095,-1.1 -1.093,-2.878 0.004,-3.975l0.234,-0.234l14.868,-14.868c4.188,-1.328 8.285,-2.773 12.291,-4.334l-10.071,10.071c-0.026,0.028 -0.053,0.056 -0.081,0.084l-11.527,11.524c1.854,2.886 4.039,8.199 0.125,13.762l24.261,24.262l22.426,4.118c1.028,0.189 1.867,0.933 2.178,1.931c0.311,0.998 0.043,2.086 -0.697,2.825l-7.516,7.517l31.758,31.758c1.099,1.099 1.099,2.88 0,3.978l-28.102,28.102c-0.546,-0.751 -1.159,-1.47 -1.836,-2.147c-0.676,-0.676 -1.392,-1.287 -2.141,-1.832l26.112,-26.112l-29.769,-29.769l-7.52,7.519c-0.737,0.738 -1.823,1.007 -2.82,0.699c-0.996,-0.308 -1.741,-1.142 -1.934,-2.168l-1.207,-6.419l-21.238,21.238l-4.177,13.624l21.387,21.387c-0.75,0.546 -1.466,1.157 -2.142,1.833c-0.678,0.677 -1.289,1.395 -1.836,2.146Zm-62.803,-70.761l31.925,31.925l13.836,-4.301l23.788,-23.788l-1.779,-9.453l-12.73,-12.73l-11.403,-11.402c-5.574,3.926 -10.93,1.768 -13.832,-0.057l-29.805,29.806Zm225.49,70.764l-19.263,-19.264l-2.145,6.996c-0.393,1.281 -1.635,2.108 -2.968,1.975c-1.333,-0.132 -2.388,-1.187 -2.521,-2.52c-0.5,-5.012 -2.048,-8.931 -4.805,-11.688c-2.756,-2.757 -6.673,-4.305 -11.688,-4.803c-1.331,-0.132 -2.385,-1.183 -2.521,-2.515c-0.135,-1.331 0.686,-2.573 1.964,-2.97l6.987,-2.173l-31.812,-31.812l-31.833,-31.834l-2.145,6.999c-0.393,1.28 -1.634,2.107 -2.967,1.974c-1.333,-0.132 -2.388,-1.185 -2.522,-2.518c-0.503,-5.013 -2.051,-8.934 -4.807,-11.692c-2.756,-2.757 -6.672,-4.306 -11.685,-4.804c-1.332,-0.132 -2.386,-1.183 -2.521,-2.515c-0.136,-1.331 0.685,-2.573 1.963,-2.97l26.929,-8.372l7.263,-7.263l-27.943,-27.944c1.559,-1.098 3.089,-2.22 4.592,-3.365l27.329,27.331l12.521,-12.523l-1.78,-9.454l-12.73,-12.73l-8.07,-8.069c1.296,-1.362 2.563,-2.747 3.802,-4.156l8.246,8.247l12.86,12.859l22.425,4.115c1.028,0.189 1.867,0.932 2.178,1.931c0.311,0.998 0.042,2.086 -0.697,2.825l-7.517,7.518l29.771,29.77l3.949,-3.949c0.834,1.812 1.695,3.603 2.584,5.372l-2.555,2.556l8.847,8.846c7.359,12.191 16.177,23.242 26.437,33.161c8.946,8.647 18.769,16.233 29.471,22.746l14.6,14.6c0.528,0.527 0.824,1.243 0.824,1.989c-0,0.746 -0.296,1.462 -0.824,1.989l-28.102,28.102c-0.547,-0.751 -1.159,-1.47 -1.836,-2.147c-0.676,-0.676 -1.392,-1.287 -2.141,-1.832l26.111,-26.112l-29.769,-29.769l-7.519,7.519c-0.738,0.738 -1.823,1.007 -2.82,0.699c-0.997,-0.308 -1.741,-1.142 -1.934,-2.168l-1.208,-6.419l-21.212,21.212l-4.189,13.665l21.373,21.374c-0.748,0.545 -1.464,1.156 -2.139,1.831c-0.678,0.678 -1.29,1.397 -1.838,2.149Zm-62.804,-70.763l31.914,31.914l13.868,-4.311l23.768,-23.768l-1.779,-9.452l-31.077,-31.077l-36.694,36.694Zm32.715,-40.672l-29.77,-29.77l-7.516,7.517c-0.737,0.738 -1.823,1.007 -2.819,0.699c-0.997,-0.308 -1.742,-1.142 -1.935,-2.167l-1.208,-6.418l-11.793,11.795l-9.42,9.42l-4.188,13.661l31.955,31.956l36.694,-36.693Zm173.067,93.571l-1.724,5.621c-0.393,1.281 -1.634,2.107 -2.968,1.975c-1.333,-0.133 -2.388,-1.187 -2.521,-2.521c-0.208,-2.091 -0.6,-3.993 -1.185,-5.699c2.769,0.246 5.568,0.454 8.398,0.624Zm19.71,17.862l-17.751,-17.751c2.736,0.147 5.5,0.259 8.292,0.335l13.437,13.437c-0.749,0.546 -1.465,1.156 -2.141,1.832c-0.678,0.677 -1.29,1.396 -1.837,2.147Zm50.616,-21.495l-21.495,21.496c-0.547,-0.751 -1.16,-1.47 -1.838,-2.148c-0.675,-0.676 -1.391,-1.286 -2.139,-1.832l16.027,-16.028c3.192,-0.442 6.34,-0.938 9.445,-1.488Zm112.071,21.495l-19.277,-19.276l-2.157,7.035c-0.393,1.281 -1.635,2.107 -2.968,1.975c-1.333,-0.133 -2.388,-1.187 -2.521,-2.521c-0.5,-5.012 -2.048,-8.931 -4.804,-11.689c-2.755,-2.757 -6.672,-4.306 -11.686,-4.804c-1.331,-0.133 -2.385,-1.185 -2.52,-2.516c-0.136,-1.331 0.686,-2.573 1.963,-2.97l7.021,-2.183l-8.355,-8.355c1.668,-0.98 3.315,-1.985 4.941,-3.016l9.484,9.484l13.835,-4.301l23.79,-23.788l-1.78,-9.454l-6.249,-6.249c1.206,-1.452 2.386,-2.924 3.54,-4.416l6.815,6.815l22.429,4.118c1.029,0.189 1.867,0.933 2.178,1.931c0.311,0.998 0.043,2.086 -0.697,2.825l-7.517,7.518l31.756,31.757c1.099,1.099 1.099,2.88 0,3.978l-28.099,28.102c-0.547,-0.751 -1.159,-1.47 -1.836,-2.147c-0.676,-0.676 -1.392,-1.287 -2.141,-1.833l26.109,-26.111l-29.768,-29.767l-7.518,7.517c-0.737,0.738 -1.822,1.007 -2.819,0.699c-0.997,-0.308 -1.741,-1.142 -1.934,-2.167l-1.209,-6.42l-21.236,21.235l-4.179,13.628l21.387,21.387c-0.749,0.546 -1.466,1.156 -2.141,1.832c-0.678,0.677 -1.29,1.396 -1.837,2.147Zm-213.44,-302.739l19.147,19.148l22.434,4.12c1.028,0.188 1.867,0.932 2.177,1.93c0.311,0.998 0.043,2.086 -0.696,2.826l-7.519,7.519l64.957,64.955l2.229,0.409c-0.626,7.345 -1.696,13.977 -3.243,19.886l-0.056,-0.298l-21.24,21.24l-3.704,12.086c-6.015,2.727 -12.93,4.167 -20.719,4.381l3.738,-3.738c-2.514,-1.659 -5.689,-2.643 -9.497,-3.021c-1.331,-0.133 -2.385,-1.185 -2.52,-2.516c-0.135,-1.331 0.686,-2.573 1.964,-2.97l7.023,-2.183l-54.409,-54.409c-0.044,-1.835 -0.066,-3.707 -0.066,-5.616l0,-2.406l60.545,60.545l13.835,-4.3l23.79,-23.789l-1.781,-9.455l-64.824,-64.822l-7.517,7.519c-0.738,0.737 -1.823,1.006 -2.82,0.698c-0.997,-0.308 -1.741,-1.142 -1.934,-2.167l-1.208,-6.42l-18.086,18.086l0,-7.957l16.827,-16.826l-1.778,-9.449l-15.049,-15.049l0,-7.957Zm-174.943,-26.108l3.15,3.151l18.948,-18.948l0,7.957l-14.97,14.97l7.516,7.517c0.738,0.737 1.007,1.823 0.699,2.819c-0.308,0.997 -1.142,1.741 -2.168,1.934l-6.416,1.208l15.339,15.339l0,7.96l-7.527,-7.527l-0.077,-0.08l-9.559,-9.559c-0.924,-9.283 -2.57,-18.196 -4.935,-26.741Zm-212.762,-114.622l1.055,-3.441l-21.39,-21.39c0.751,-0.546 1.468,-1.158 2.145,-1.835c0.676,-0.676 1.287,-1.393 1.833,-2.143l19.278,19.278l2.157,-7.035c0.393,-1.281 1.634,-2.107 2.967,-1.975c1.334,0.132 2.389,1.186 2.522,2.519c0.501,5.013 2.049,8.932 4.805,11.69c2.159,2.16 5.031,3.579 8.586,4.332l-23.958,-0Zm-74.092,-0c0.13,-0.254 0.302,-0.493 0.515,-0.706l28.104,-28.104c0.546,0.75 1.157,1.467 1.834,2.144c0.677,0.677 1.394,1.288 2.144,1.834l-24.831,24.832l-7.766,-0Zm-88.612,-0l1.059,-3.455l-21.377,-21.377c0.75,-0.547 1.467,-1.158 2.143,-1.834c0.677,-0.677 1.289,-1.395 1.835,-2.146l19.266,19.267l2.145,-6.997c0.393,-1.281 1.634,-2.107 2.968,-1.975c1.333,0.133 2.388,1.187 2.521,2.52c0.5,5.013 2.048,8.931 4.805,11.689c2.138,2.139 4.976,3.55 8.483,4.308l-23.848,-0Zm-10.727,66.105l-14.683,-14.683l-22.427,-4.119c-1.028,-0.189 -1.867,-0.932 -2.178,-1.93c-0.311,-0.998 -0.042,-2.087 0.697,-2.826l7.516,-7.517l-31.758,-31.757c-0.528,-0.528 -0.824,-1.244 -0.824,-1.99c-0,-0.746 0.296,-1.461 0.824,-1.989l28.104,-28.104c0.546,0.75 1.158,1.467 1.834,2.144c0.677,0.677 1.394,1.288 2.144,1.834l-26.114,26.115l29.769,29.769l7.519,-7.519c0.738,-0.738 1.823,-1.007 2.82,-0.699c0.996,0.309 1.741,1.143 1.934,2.168l1.207,6.419l13.616,-13.616l0,7.957l-12.356,12.356l1.778,9.452l10.578,10.578l0,7.957Zm-38.895,34.491l0.297,0.297l0.08,0.077l11.404,11.404c5.572,-3.923 10.927,-1.767 13.828,0.057l11.461,-11.461l0.08,-0.077l1.745,-1.746l0,7.957l-11.034,11.034l0.077,-0.08l-0.068,0.068c-1.088,1.088 -2.848,1.1 -3.951,0.027c0,0 -0.95,-0.927 -2.438,-1.591c-1.467,-0.655 -3.455,-1.053 -5.567,-0.054l22.981,22.983l0,7.957l-24.149,-24.149l-2.702,2.702c0.674,1.456 1.6,2.383 1.6,2.383c1.095,1.099 1.094,2.878 -0.004,3.975l-26.438,26.438l-0.012,0.012c-1.088,1.076 -2.839,1.084 -3.938,0.016c0,-0 -3.754,-3.659 -8.01,-1.645l25.135,25.138l11.422,11.421l7.519,-7.519c0.738,-0.738 1.823,-1.007 2.82,-0.699c0.996,0.308 1.741,1.143 1.934,2.168l1.207,6.419l13.616,-13.616l0,7.957l-12.356,12.356l1.779,9.453l10.577,10.578l0,7.957l-1.825,-1.826l-12.859,-12.859l-22.426,-4.118c-1.028,-0.189 -1.867,-0.932 -2.178,-1.931c-0.311,-0.998 -0.042,-2.086 0.697,-2.825l7.516,-7.516l-29.769,-29.77l-5.081,5.082l-13.263,13.266l-0.081,0.077l-14.437,14.438c2.514,1.657 5.688,2.641 9.495,3.02c1.331,0.132 2.385,1.184 2.52,2.515c0.135,1.331 -0.686,2.573 -1.964,2.97l-7.023,2.184l63.673,63.672l2.156,-7.036c0.393,-1.281 1.635,-2.107 2.968,-1.975c1.333,0.133 2.388,1.187 2.521,2.521c0.38,3.805 1.363,6.98 3.021,9.495l14.439,-14.439l0.075,-0.078l1.825,-1.826l0,7.96l-12.361,12.362c2.513,1.657 5.688,2.641 9.494,3.019c1.332,0.133 2.386,1.185 2.521,2.516c0.135,1.331 -0.686,2.573 -1.964,2.97l-26.93,8.372l-13.768,13.767l-4.204,-3.753l14.164,-14.162l4.176,-13.623l-67.876,-67.875l-13.836,4.301l-23.788,23.788l1.778,9.449l8.243,8.244c-1.221,1.459 -2.454,2.879 -3.697,4.26l-8.645,-8.645l-22.433,-4.12c-1.028,-0.189 -1.867,-0.932 -2.178,-1.931c-0.311,-0.998 -0.042,-2.086 0.697,-2.825l7.519,-7.52l-64.957,-64.954l-22.426,-4.118c-1.028,-0.189 -1.867,-0.932 -2.178,-1.931c-0.31,-0.998 -0.042,-2.086 0.697,-2.825l7.517,-7.516l-21.21,-21.21c1.466,-1.21 2.971,-2.358 4.514,-3.443l20.675,20.675l7.518,-7.517c0.738,-0.738 1.823,-1.007 2.82,-0.699c0.997,0.308 1.741,1.142 1.934,2.168l1.209,6.418l21.24,-21.24l4.158,-13.569c9.87,1.052 19.287,3.7 28.261,7.921c-0.334,0.666 -0.928,1.193 -1.681,1.427l-7.023,2.182l63.67,63.671l2.157,-7.034c0.392,-1.28 1.634,-2.107 2.967,-1.974c1.333,0.132 2.388,1.186 2.521,2.519c0.381,3.804 1.364,6.978 3.021,9.492l26.044,-26.043c-1.855,-2.886 -4.042,-8.198 -0.125,-13.761l-14.314,-14.314l4.204,-3.752l2.606,2.606l0.08,0.077l11.403,11.404c5.572,-3.925 10.929,-1.769 13.831,0.055l9.47,-9.47l-20.102,-20.103l4.204,-3.753l19.876,19.878l9.538,-9.538c-1.855,-2.887 -4.041,-8.199 -0.125,-13.763l-12.005,-12.005l4.204,-3.753Zm14.745,22.702l-2.807,-2.808c-0.981,2.099 -0.562,4.064 0.105,5.509l2.702,-2.701Zm-86.067,76.62l-67.873,-67.874l-13.836,4.299l-23.789,23.79l1.781,9.455l64.824,64.821l7.517,-7.518c0.738,-0.738 1.823,-1.007 2.82,-0.699c0.997,0.308 1.741,1.143 1.934,2.168l1.207,6.419l21.239,-21.238l4.176,-13.623Zm49.372,-31.97l-6.783,-6.784c-1.969,4.213 1.706,7.891 1.706,7.891c1.069,1.073 1.093,2.794 0.073,3.896l5.004,-5.003Zm-90.336,-171.681l-21.098,-21.099c0.75,-0.546 1.467,-1.157 2.144,-1.834c0.677,-0.677 1.288,-1.394 1.834,-2.144l19.279,19.279l2.158,-7.035c0.393,-1.281 1.634,-2.108 2.967,-1.975c1.334,0.132 2.389,1.187 2.522,2.52c0.5,5.012 2.047,8.931 4.803,11.689c2.756,2.757 6.672,4.306 11.687,4.805c1.331,0.132 2.385,1.184 2.52,2.515c0.029,0.289 0.014,0.573 -0.042,0.846c-9.259,-3.066 -18.85,-5.589 -28.774,-7.567Zm-66.067,-5.246l19.831,-19.832c0.547,0.75 1.159,1.468 1.836,2.145c0.676,0.676 1.393,1.288 2.142,1.834l-15.723,15.724c-2.712,0.008 -5.407,0.051 -8.086,0.129Zm-108.229,26.887l7.722,-7.721l4.179,-13.629l-21.39,-21.39c0.75,-0.546 1.468,-1.157 2.144,-1.834c0.677,-0.677 1.288,-1.394 1.835,-2.144l19.279,19.279l2.157,-7.035c0.393,-1.281 1.634,-2.108 2.968,-1.975c1.333,0.132 2.388,1.187 2.521,2.52c0.5,5.012 2.047,8.931 4.803,11.689c2.756,2.757 6.673,4.306 11.687,4.805c0.876,0.087 1.632,0.573 2.085,1.274c-13.9,4.183 -27.229,9.571 -39.99,16.161Zm-39.172,25.742c0.136,-0.408 0.366,-0.787 0.681,-1.103l7.518,-7.518l-31.757,-31.756c-1.098,-1.099 -1.098,-2.88 0,-3.979l28.102,-28.104c0.546,0.75 1.158,1.467 1.834,2.144c0.677,0.677 1.394,1.288 2.145,1.835l-26.113,26.114l29.768,29.768l7.517,-7.518c0.738,-0.738 1.823,-1.007 2.82,-0.699c0.997,0.308 1.741,1.143 1.934,2.168l0.203,1.076c-8.744,5.351 -16.961,11.209 -24.652,17.572Zm327.619,302.84c-1.232,1.423 -2.482,2.826 -3.75,4.207l-14.574,-14.573l-16.154,-2.966c6.014,-5.795 11.623,-11.962 16.784,-18.446l0.204,0.182l0.231,1.23l0.541,-0.541l4.204,3.753l-3.484,3.484l1.78,9.453l14.218,14.217Zm-285.966,-278.007l-17.061,-17.061l-15.918,-2.923c7.734,-6.168 16.006,-11.819 24.817,-16.953l-6.573,6.571l1.78,9.454l17.544,17.544c-1.551,1.097 -3.081,2.22 -4.589,3.368Zm27.619,-53.725c1.953,-0.714 3.918,-1.401 5.895,-2.062l26.418,26.417c-2.059,0.581 -4.1,1.192 -6.124,1.833l-26.189,-26.188Zm304.605,327.15l-0,-7.956l38.43,-38.431l0.024,7.933l-38.454,38.454Zm134.387,13.58l0,34.439c-6.148,1.858 -13.097,0.36 -17.952,-4.495c-7.023,-7.025 -7.023,-18.427 -0,-25.446c4.855,-4.857 11.804,-6.357 17.952,-4.498Zm53.605,-45.592l13.045,-13.045l2.173,-11.832c7.023,-0.771 13.864,-1.714 20.482,-2.866l-2.286,2.286l7.517,7.52c0.737,0.737 1.006,1.822 0.698,2.819c-0.308,0.997 -1.142,1.741 -2.167,1.934l-6.414,1.208l9.517,9.517c-2.344,0.314 -4.713,0.598 -7.105,0.852l-9.108,-9.109l-9.461,1.782l-8.909,8.909c-1.351,0.017 -2.709,0.025 -4.073,0.025l-3.909,0Zm148.156,-140.199c0.059,-1.751 0.089,-3.527 0.089,-5.329c-0,-0.906 -0.006,-1.806 -0.017,-2.7l27.503,-27.503l3.608,-19.645c2.182,7.335 3.79,14.965 4.825,22.888l-4.582,0.863l-31.426,31.426Zm-22.403,66.2c1.125,-1.427 2.212,-2.888 3.259,-4.384l0.13,-0.186l15.385,15.386l10.608,-10.608l7.738,-7.74l0.056,-0.055l12.566,-12.566c-2.034,5.152 -4.375,10.145 -7.024,14.981l-7.702,7.703l-5.445,5.446c0.689,1.071 1.423,2.477 1.874,4.107c-4.302,5.592 -9.033,10.82 -14.192,15.685c-2.165,-0.353 -4.028,-1.265 -5.367,-2.107l-9.47,9.469l2.772,2.773c-1.514,1.133 -3.058,2.241 -4.631,3.325l-2.12,-2.12l-9.196,9.197c-4.725,2.681 -9.676,5.171 -14.85,7.47c-0.343,0.152 -0.686,0.304 -1.03,0.454l36.275,-36.275c1.088,-1.076 2.839,-1.084 3.938,-0.015c-0,-0 3.754,3.658 8.01,1.644l-21.584,-21.584Zm18.775,10.817l6.784,6.785c1.97,-4.214 -1.706,-7.893 -1.706,-7.893c-1.069,-1.073 -1.093,-2.794 -0.072,-3.896l-5.006,5.004Zm-18.554,-204.947c0.048,4.669 -1.707,9.352 -5.266,12.909c-6.345,6.348 -16.269,6.96 -23.304,1.836l-1.16,1.16c-1.647,-1.003 -3.331,-1.971 -5.05,-2.906l2.231,-2.232c-5.123,-7.033 -4.512,-16.956 1.834,-23.304c0.98,-0.98 2.045,-1.824 3.172,-2.53c0.573,0.247 1.144,0.498 1.713,0.75c9.342,4.152 17.952,8.924 25.83,14.317Zm-74.479,52.698c2.01,0.65 3.965,1.347 5.86,2.096l-21.25,21.25l-1.123,6.121c-5.501,-4.465 -12.511,-7.579 -21.03,-9.341l-29.767,-29.768c2.839,0.131 5.643,0.28 8.41,0.45l15.699,15.697c0.037,0.037 0.073,0.075 0.108,0.114l14.397,14.397l9.46,-1.781l19.236,-19.235Zm-98.035,111.791l-2.814,15.325c-0.189,1.028 -0.933,1.867 -1.931,2.178c-0.998,0.311 -2.086,0.042 -2.825,-0.697l-7.518,-7.518l-20.293,20.293c-2.624,-0.027 -5.248,-0.056 -7.872,-0.085l24.186,-24.186l-7.517,-7.518c-0.738,-0.738 -1.007,-1.823 -0.699,-2.82c0.308,-0.996 1.142,-1.741 2.167,-1.934l6.419,-1.208l-11.715,-11.715l-0.077,-0.075l-18.347,-18.348l-2.043,2.043l0,-0.003l2.042,-2.041l-2.054,-2.054l-0.024,-7.982l38.914,38.914l4.936,-0.929l0,10.36l7.065,-0Zm-103.069,73.745l0.031,10.281l-4.888,-4.889c-0.738,-0.738 -1.007,-1.823 -0.699,-2.82c0.308,-0.996 1.142,-1.741 2.167,-1.934l3.389,-0.638Zm-0.035,-11.589l0.024,7.981l-27.099,-27.1l-11.273,11.273l-0,-7.959l0.474,-0.475c-0.157,-0.244 -0.316,-0.506 -0.474,-0.783l-0,-12.459c0.11,-0.173 0.227,-0.347 0.349,-0.521l-0.349,-0.349l-0,-7.957l4.327,4.327c5.573,-3.926 10.931,-1.768 13.832,0.057l9.472,-9.469l-27.631,-27.63l-0,-7.956l31.61,31.607l6.575,-6.575l0.024,7.933l-4.61,4.61l-13.187,13.187l0.073,-0.075l-0.064,0.063c-1.088,1.088 -2.847,1.1 -3.95,0.027c-0,0 -3.754,-3.66 -8.011,-1.646l25.139,25.137l0.077,0.08l4.672,4.672Zm-32.16,-14.037l5.084,-5.083l-6.786,-6.786c-1.97,4.215 1.706,7.894 1.706,7.894c1.095,1.099 1.093,2.878 -0.004,3.975Zm565.552,83.14c-1.008,-0.338 -2.009,-0.69 -3.003,-1.056c0.906,-0.215 1.898,0.024 2.614,0.72c-0,-0 0.137,0.134 0.389,0.336Zm-171.76,-85.472c-1.076,-0.242 -2.215,-0.422 -3.418,-0.541c-1.331,-0.132 -2.386,-1.184 -2.521,-2.515c-0.135,-1.331 0.686,-2.574 1.964,-2.971l3.497,-1.087c0.13,2.394 0.289,4.765 0.478,7.114Zm-0.917,-52.843l-5.538,-5.538l-19.112,19.113c1.262,-3.7 2.383,-7.472 3.361,-11.318l13.762,-13.763l7.527,-7.527l0,7.958l-1.559,1.559l1.559,1.559l0,7.957Zm28.237,123.377c-0.862,-1.797 -1.694,-3.618 -2.497,-5.46l20.593,-20.594l-0.076,0.08l0.067,-0.068c1.088,-1.088 2.849,-1.1 3.951,-0.027c0,0 0.951,0.928 2.439,1.592c1.466,0.654 3.454,1.053 5.567,0.054l-25.134,-25.136l-11.512,-11.512l-2.158,7.035c-0.392,1.281 -1.634,2.107 -2.967,1.975c-1.333,-0.132 -2.388,-1.187 -2.521,-2.52c-0.397,-3.961 -1.446,-7.24 -3.229,-9.802c-0.563,-5.244 -0.971,-10.608 -1.224,-16.093l14.33,-4.455l7.291,-7.291l-21.93,-21.929l0,-7.956l25.909,25.906l12.52,-12.52l-1.779,-9.453l-12.73,-12.73l-11.402,-11.402c-4.815,3.392 -9.469,2.243 -12.518,0.69l0,-6.775c0.131,0.09 0.256,0.192 0.374,0.306c0,0 3.754,3.661 8.01,1.647l-8.384,-8.384l0,-7.958l5.572,5.571l32.862,-32.862c-2.514,-1.658 -5.688,-2.642 -9.495,-3.02c-1.331,-0.132 -2.385,-1.184 -2.52,-2.515c-0.135,-1.331 0.686,-2.574 1.964,-2.971l16.777,-5.216l0,25.154c-0.493,-2.913 -1.396,-5.402 -2.748,-7.453l-14.439,14.439l-0.075,0.078l-11.527,11.527c1.855,2.886 4.042,8.199 0.125,13.763l11.402,11.402l12.859,12.859l4.403,0.809l0,27.471c-0.686,0.432 -1.536,0.553 -2.33,0.307c-0.997,-0.308 -1.741,-1.142 -1.934,-2.167l-1.208,-6.42l-21.233,21.234l-4.18,13.629l35.947,35.947l1.374,-1.374l0,0.001l-1.373,1.374l2.742,2.743c1.609,4.596 3.452,9.092 5.517,13.476l-5.295,-5.296c-5.573,3.923 -10.927,1.768 -13.828,-0.057l-11.461,11.462l-0.08,0.076l-8.808,8.809Zm-8.353,-162.291l-5.084,5.083l6.786,6.786c1.969,-4.215 -1.706,-7.894 -1.706,-7.894c-1.095,-1.099 -1.094,-2.877 0.004,-3.975Zm50.173,215.662c-3.302,-2.711 -6.495,-5.558 -9.578,-8.538c-0.939,-0.908 -1.865,-1.825 -2.778,-2.753l14.709,2.701c1.028,0.189 1.867,0.933 2.178,1.931c0.311,0.998 0.042,2.086 -0.697,2.825l-3.834,3.834Zm116.617,40.574c-9.659,-0.507 -18.951,-1.463 -27.877,-2.867c-0.623,-0.458 -1.05,-1.168 -1.132,-1.982c-0.135,-1.331 0.686,-2.573 1.963,-2.97l7.021,-2.183l-28.436,-28.436c4.494,2.176 9.117,4.147 13.856,5.899l20.65,20.65l13.835,-4.301l7.107,-7.106c2.482,0.21 4.981,0.364 7.497,0.46l-10.79,10.789l-3.694,12.047Zm-103.027,-82.775c-1.469,-0.43 -3.072,-0.728 -4.807,-0.9c-1.331,-0.133 -2.385,-1.185 -2.52,-2.516c-0.135,-1.331 0.686,-2.573 1.964,-2.97l0.616,-0.192c1.52,2.236 3.103,4.429 4.747,6.578Zm15.953,17.714c-0.508,0.311 -1.116,0.462 -1.745,0.4c-1.333,-0.132 -2.388,-1.187 -2.521,-2.52c-0.085,-0.842 -0.198,-1.653 -0.343,-2.434c1.502,1.55 3.039,3.068 4.609,4.554Zm161.131,59.839c-2.189,0.469 -4.401,0.909 -6.637,1.32l-20.879,-20.879c2.257,-0.366 4.498,-0.778 6.72,-1.236l20.796,20.795Zm58.493,-22.849c-1.644,1.013 -3.311,1.999 -4.999,2.958l-22.028,-22.028c1.617,-1.028 3.213,-2.086 4.786,-3.171l22.241,22.241Zm42.734,-38.61c-1.143,1.502 -2.314,2.984 -3.513,4.444l-24.422,-24.423c1.109,-1.553 2.187,-3.128 3.233,-4.724l24.702,24.703Zm-101.681,-82.767c2.09,-6.961 3.55,-14.884 4.381,-23.769l11.113,2.041c1.028,0.188 1.867,0.932 2.177,1.93c0.311,0.998 0.043,2.087 -0.696,2.826l-7.517,7.515l30.532,30.532c-0.877,1.751 -1.81,3.472 -2.796,5.162l-31.715,-31.716l-5.479,5.479Zm-62.634,40.826c2.234,0.192 4.536,0.287 6.904,0.287c0.257,0 0.514,-0.001 0.77,-0.003l-5.429,5.429l-0.076,0.079l-11.528,11.524c1.856,2.886 4.042,8.199 0.125,13.763l3.001,3.001c-4.33,-0.633 -8.573,-1.519 -12.711,-2.641c0.52,-0.092 1.056,-0.256 1.599,-0.513l-25.135,-25.134l-0.077,-0.08l-11.347,-11.347l-7.517,7.518c-0.738,0.738 -1.823,1.007 -2.82,0.699c-0.996,-0.308 -1.741,-1.142 -1.934,-2.167l-1.208,-6.418l-4.071,4.072c-1.208,-1.457 -2.371,-2.948 -3.487,-4.47l6.297,-6.298l-1.781,-9.456l-12.65,-12.65l-0.08,-0.077l-7.788,-7.789c-1.08,-5.536 -1.645,-11.246 -1.645,-17.086l-0,-10.342l9.433,-9.436l0.08,-0.077l14.438,-14.437c-2.514,-1.658 -5.688,-2.642 -9.495,-3.02c-1.331,-0.132 -2.385,-1.184 -2.52,-2.515c-0.135,-1.332 0.686,-2.574 1.963,-2.971l7.024,-2.183l-20.923,-20.923l-0,-7.957l26.992,26.993l11.571,-3.597l0,23.258l-2.125,6.931c-0.392,1.281 -1.634,2.107 -2.967,1.975c-1.333,-0.132 -2.388,-1.186 -2.522,-2.519c-0.38,-3.804 -1.364,-6.978 -3.021,-9.493l-26.044,26.044c1.856,2.886 4.042,8.198 0.126,13.76l24.264,24.264l22.422,4.115c1.029,0.189 1.868,0.932 2.178,1.931c0.311,0.998 0.043,2.086 -0.696,2.825l-7.516,7.517l36.556,36.556c1.969,-4.215 -1.706,-7.894 -1.706,-7.894c-1.096,-1.099 -1.094,-2.878 0.004,-3.975l0.234,-0.234l14.838,-14.839Zm19.522,-0.722c2.337,-0.396 4.593,-0.908 6.768,-1.537l-1.095,3.571c-0.392,1.281 -1.634,2.107 -2.967,1.975c-1.333,-0.132 -2.388,-1.186 -2.522,-2.52c-0.05,-0.507 -0.112,-1.004 -0.184,-1.489Zm10.183,-2.645c1.927,-0.696 3.784,-1.491 5.572,-2.386l27.338,27.338c-1.709,0.958 -3.449,1.871 -5.22,2.737l-27.69,-27.689Zm-83.73,-173.031l0,7.957l-38.563,-38.564l-0,-19.714l8.029,1.475c1.028,0.189 1.867,0.932 2.178,1.93c0.311,0.998 0.042,2.087 -0.697,2.826l-7.518,7.518l36.571,36.572Zm-134.391,-33.947l0,-7.957l44.254,-44.253c0.268,-0.269 0.577,-0.471 0.906,-0.609l0,7.659l-45.16,45.16Zm-246.916,-88.328l24.508,0l26.344,26.344c-2.933,-0.36 -5.915,-0.689 -8.946,-0.989l-24.553,-24.553l-13.836,4.302l-17.453,17.452c-9.237,-0.153 -18.754,-0.212 -28.526,-0.224l-22.332,-22.332l7.957,0l21.825,21.825l7.52,-7.519c0.737,-0.738 1.823,-1.007 2.819,-0.699c0.997,0.309 1.742,1.143 1.934,2.168l1.208,6.419l21.238,-21.237l0.293,-0.957Zm-161.374,7.308l-0,-7.308l23.197,0l22.434,22.436l-7.956,-0l-21.623,-21.624l-13.868,4.311l-2.184,2.185Zm-0,58.797l-0,-7.957l11.272,11.273l26.422,-26.422l0.024,7.932l-22.467,22.468l22.603,22.603l0.025,7.981l-26.607,-26.606l-11.272,11.273l-0,-7.957l7.294,-7.294l-7.294,-7.294Zm-0,81.343l-0,-7.957l4.437,4.438l2.157,-7.036c0.393,-1.281 1.635,-2.107 2.968,-1.974c1.333,0.132 2.388,1.186 2.521,2.519c0.502,5.013 2.049,8.933 4.805,11.691c2.755,2.757 6.671,4.306 11.685,4.804c1.331,0.132 2.385,1.183 2.521,2.515c0.135,1.331 -0.686,2.573 -1.964,2.97l-26.924,8.371l-2.206,2.206l-0,-11.597l2.57,-8.38l-2.57,-2.57Zm-130.742,113.288c1.248,-1.378 2.485,-2.793 3.712,-4.245l21.033,21.034c-1.214,1.431 -2.459,2.839 -3.734,4.222l-21.011,-21.011Zm-136.239,-144.194c-1.517,1.114 -3,2.284 -4.449,3.508l-24.519,-24.518c1.593,-1.069 3.215,-2.099 4.865,-3.092l24.103,24.102Zm88.136,-11.734c-2.017,-0.684 -4.054,-1.3 -6.109,-1.848l11.138,-11.138l0.076,-0.079l10.701,-10.698c1.916,0.717 3.811,1.475 5.685,2.272l-21.491,21.491Zm-11.495,-3.118c-2.543,-0.524 -5.114,-0.946 -7.713,-1.268l1.287,-4.199c0.392,-1.281 1.634,-2.108 2.967,-1.975c1.333,0.132 2.388,1.186 2.521,2.519c0.179,1.78 0.489,3.422 0.938,4.923Zm-11.84,-1.692c-2.737,-0.224 -5.504,-0.339 -8.302,-0.344l-25.659,-25.66c2.362,-0.316 4.745,-0.586 7.147,-0.81l26.814,26.814Zm130.571,-15.894c-2.898,-3.206 -5.912,-6.319 -9.034,-9.332l1.869,-6.098l-31.969,-31.968l-8.982,8.982c-1.704,-0.957 -3.425,-1.889 -5.162,-2.795l10.166,-10.166l-31.926,-31.926l-13.835,4.302l-19.266,19.264c-8.891,-1.519 -18,-2.405 -27.28,-2.601l-27.72,-27.72c-0.706,-0.707 -0.959,-1.696 -0.756,-2.604c2.554,-0.159 5.124,-0.283 7.711,-0.373l-0.987,0.987l29.769,29.769l7.519,-7.519c0.738,-0.738 1.823,-1.007 2.82,-0.699c0.997,0.309 1.741,1.143 1.934,2.168l1.207,6.417l21.235,-21.232l1.527,-4.981c8.904,1.755 17.53,3.962 25.88,6.623l59.982,59.982l2.156,-7.035c0.393,-1.281 1.635,-2.108 2.968,-1.975c1.333,0.132 2.388,1.186 2.521,2.519c0.502,5.014 2.05,8.933 4.806,11.691c2.756,2.757 6.673,4.305 11.688,4.804c1.331,0.132 2.385,1.184 2.52,2.515c0.135,1.331 -0.686,2.573 -1.964,2.971l-7.023,2.183l4.577,4.577l-4.204,3.753l-6.443,-6.443l-6.304,1.96Zm-58.253,14.827c10.83,7.902 20.397,17.279 28.342,27.733l-0.322,0.287l-3.415,-3.415l-22.423,-4.115c-1.028,-0.189 -1.867,-0.932 -2.178,-1.93c-0.311,-0.998 -0.042,-2.087 0.697,-2.826l7.516,-7.517l-8.217,-8.217Zm326.331,14.802c9.106,1.327 16.381,4.229 21.733,9.022c0.998,0.894 1.921,1.84 2.772,2.838l-0.994,5.419c-0.189,1.028 -0.933,1.867 -1.931,2.178c-0.998,0.311 -2.087,0.042 -2.826,-0.697l-7.516,-7.519l-62.831,62.831l-1.264,-0l-0,-6.692l60.117,-60.118l-7.26,-7.262Zm-29.483,-38.354c0.653,1.866 1.893,3.108 1.893,3.108c1.095,1.099 1.093,2.878 -0.004,3.975l-0.234,0.234l-20.945,20.945l-7.957,-0l11.814,-11.814c0.026,-0.029 0.053,-0.057 0.081,-0.084l11.527,-11.525c-0.817,-1.271 -1.698,-3.013 -2.093,-5.04c1.989,0.06 3.961,0.126 5.918,0.201Zm-76.452,72.282l-0.018,-5.895c3.691,-0.621 6.947,0.827 8.988,2.11l9.469,-9.47l-18.535,-18.537l-0.025,-7.982l22.539,22.541l21.435,-21.435l0,7.956l-32.633,32.634c-1.088,1.075 -2.839,1.083 -3.938,0.015c0,-0 -3.335,-3.251 -7.282,-1.937Zm-0.192,-63.312l-0.029,-9.482c7.484,-0.042 14.832,-0.089 22.037,-0.118c0.03,0.123 0.051,0.249 0.064,0.378c0.136,1.331 -0.686,2.574 -1.963,2.971l-20.109,6.251Zm-52.444,25.943l0.029,9.665l-2.92,-0.536c-1.028,-0.189 -1.867,-0.932 -2.178,-1.93c-0.311,-0.998 -0.043,-2.087 0.697,-2.826l4.372,-4.373Z" style="fill:#fff;"/><g><path d="M416.082,453.705l25.228,22.519c-19.741,25.814 -44.795,45.552 -75.168,59.22c-30.37,13.667 -64.916,20.501 -103.64,20.501c-42.137,-0 -80.101,-8.826 -113.887,-26.481c-33.788,-17.651 -60.266,-42.328 -79.438,-74.027c-19.169,-31.699 -28.758,-67.668 -28.758,-107.911c-0,-40.239 9.589,-76.211 28.758,-107.91c19.172,-31.699 45.65,-56.373 79.438,-74.028c33.786,-17.651 71.75,-26.477 113.887,-26.477c38.724,0 73.27,6.834 103.64,20.501c30.373,13.665 55.427,33.406 75.168,59.22l-25.227,22.518c-33.856,-42.546 -87.039,-71.406 -147.028,-71.406c-50.784,-0 -96.595,15.352 -129.907,44.617c-33.891,29.773 -55.528,74.011 -55.528,132.965c0,58.957 21.637,103.194 55.528,132.967c33.312,29.265 79.123,44.616 129.907,44.616c59.989,0 113.171,-28.859 147.027,-71.404Zm-37.567,-178.821l-22.053,19.685c-24.674,-31.131 -53.718,-46.696 -87.124,-46.696c-28.095,0 -50.682,9.017 -67.765,27.049c-17.083,18.032 -25.626,42.234 -25.626,72.604c-0,30.371 8.543,54.573 25.626,72.608c17.083,18.031 39.67,27.046 67.765,27.046c33.406,-0 62.45,-15.565 87.124,-46.696l22.053,19.686c-24.54,32.288 -64.551,54.302 -109.46,54.302c-37.587,0 -71.832,-10.361 -96.487,-32.021c-24.076,-21.151 -38.311,-53.043 -38.311,-94.925c0,-41.88 14.236,-73.772 38.311,-94.923c24.656,-21.66 58.9,-32.022 96.487,-32.022c44.909,-0 84.921,22.014 109.46,54.303Zm140.29,281.061l-38.77,-0l-0,-407.725l191.901,-0c36.823,-0 68.903,6.076 96.235,18.223c27.335,12.147 48.405,29.613 63.209,52.389c14.805,22.779 22.211,49.351 22.211,79.724c-0,30.37 -7.406,56.945 -22.211,79.721c-14.804,22.776 -35.874,40.242 -63.209,52.389c-27.332,12.146 -59.412,18.223 -96.235,18.223l-57.514,-0l0,107.056l-43.094,-0l-0.362,-128.81c51.394,0.37 103.79,0.965 145.352,-8.506c35.218,-8.026 63.339,-23.308 80.721,-48.123c11.97,-17.088 19.232,-38.914 19.232,-67.145c0,-36.219 -8.933,-62.373 -23.758,-81.621c-15.175,-19.703 -36.928,-32.697 -64.785,-40.43c-45.344,-12.586 -109.268,-10.655 -183.72,-10.655l-26.341,0l1.138,385.29Zm720.705,-407.725l37.176,-0l0,219.239c0,59.6 -17.082,105.915 -51.251,138.943c-34.163,33.029 -81.807,49.543 -142.931,49.543c-61.12,-0 -108.765,-16.514 -142.927,-49.543c-34.169,-33.028 -51.252,-79.343 -51.252,-138.943l0,-219.239l45.16,-0l0,238.916c0,79.966 68.162,145.662 153.013,145.662c84.85,-0 153.012,-65.696 153.012,-145.662l-0,-238.916Zm-255.357,-0l38.563,-0l-0,215.252c-0,29.232 5.219,50.491 15.656,63.775c10.441,13.291 25.532,19.933 45.273,19.933c19.741,-0 34.828,-6.642 45.269,-19.933c10.441,-13.284 15.663,-34.543 15.663,-63.775l-0,-215.252l44.265,-0l0,238.916c0,52.855 -46.26,94.994 -102.344,94.994c-56.085,0 -102.345,-42.139 -102.345,-94.994l-0,-238.916Zm-582.01,293.041c-30.411,38.736 -78.698,65.053 -133.088,65.053c-45.885,0 -87.404,-13.5 -117.502,-39.941c-30.248,-26.572 -49.138,-66.229 -49.138,-118.847c0,-52.616 18.89,-92.272 49.138,-118.845c30.098,-26.442 71.617,-39.942 117.502,-39.942c54.39,-0 102.678,26.318 133.089,65.053l-9.68,8.64c-28.011,-36.092 -72.905,-60.646 -123.409,-60.646c-42.484,-0 -81.024,12.214 -108.891,36.697c-27.719,24.351 -44.702,60.826 -44.702,109.043c0,48.219 16.983,84.695 44.702,109.045c27.867,24.482 66.407,36.696 108.891,36.696c50.504,0 95.397,-24.554 123.409,-60.646l9.679,8.64Zm136.156,114.684l-1.079,-365.795l6.788,-0c72.329,-0 134.455,-2.283 178.506,9.945c23.361,6.484 41.828,17.017 54.555,33.541c12.636,16.405 19.708,38.853 19.708,69.725c-0,23.493 -5.744,41.74 -15.705,55.96c-14.793,21.12 -39.113,33.47 -69.086,40.3c-45.619,10.397 -104.645,8.093 -160.574,7.911l0.421,148.413l-13.534,-0Zm13.072,-161.946c54.898,0.195 112.833,2.631 157.608,-7.573c26.334,-6.001 48.011,-16.314 61.008,-34.869c8.566,-12.23 13.256,-27.992 13.256,-48.196c0,-27.161 -5.779,-47.034 -16.896,-61.467c-11.027,-14.317 -27.212,-23.14 -47.453,-28.759c-41.77,-11.594 -100.143,-9.599 -168.099,-9.459l0.576,190.323Zm19.436,-19.336l-0.459,-151.576c45.16,-0.256 85.436,-0.688 118.512,3.885c27.976,3.869 50.25,10.404 62.937,28.018c8.3,11.524 11.952,27.317 11.952,48.371c-0,15.468 -3.171,27.649 -9.729,37.012c-10.412,14.865 -28.276,22.238 -49.373,27.046c-38.287,8.725 -86.467,7.751 -133.84,7.244Zm92.586,-29.415c18.223,0 31.891,-4.078 40.999,-12.241c9.112,-8.162 13.668,-19.646 13.668,-34.451c-0,-14.808 -4.556,-26.292 -13.668,-34.452c-9.108,-8.162 -22.776,-12.244 -40.999,-12.244l-48.971,0l0,93.388l48.971,0Zm557.322,-197.028l-0,238.916c-0,69.908 -60.039,126.867 -134.217,126.867c-74.179,-0 -134.218,-56.959 -134.218,-126.867l0,-238.916l13.078,-0l-0,238.916c-0,62.911 54.386,113.789 121.14,113.789c66.753,0 121.139,-50.878 121.139,-113.789l0,-238.916l13.078,-0Z" style="fill:#fff;"/></g><g><g><path d="M1274.66,578.325c8.117,8.12 8.117,21.308 0,29.425c-8.12,8.123 -21.307,8.123 -29.428,-0c-8.12,-8.117 -8.12,-21.305 0,-29.425c8.12,-8.12 21.308,-8.12 29.428,0Zm-3.978,3.978c-5.925,-5.924 -15.547,-5.924 -21.471,0.001c-5.924,5.924 -5.925,15.545 -0.001,21.467l0.001,0.001c5.925,5.927 15.546,5.927 21.471,-0c5.921,-5.922 5.921,-15.544 -0,-21.469Z" style="fill:#fff;"/><path d="M1111.97,578.325c8.12,8.121 8.119,21.308 -0,29.425c-8.117,8.123 -21.305,8.123 -29.425,-0c-8.12,-8.117 -8.121,-21.305 -0,-29.425c8.12,-8.12 21.308,-8.12 29.425,0Zm-3.979,3.978c-5.922,-5.924 -15.544,-5.924 -21.468,0.001c-5.924,5.924 -5.925,15.545 -0,21.467l0.001,0.001c5.924,5.927 15.545,5.927 21.466,0l0.001,-0.001c5.925,-5.922 5.924,-15.543 -0,-21.468Z" style="fill:#fff;"/><path d="M949.282,578.325c8.12,8.12 8.12,21.308 -0,29.425c-8.121,8.123 -21.308,8.123 -29.425,-0c-8.12,-8.117 -8.12,-21.304 -0,-29.425c8.117,-8.12 21.304,-8.12 29.425,0Zm-3.979,3.979c-5.924,-5.925 -15.546,-5.925 -21.467,-0.001c-5.925,5.925 -5.925,15.546 -0.001,21.468l0.001,0.001c5.922,5.927 15.543,5.927 21.467,-0l0.001,-0.001c5.924,-5.922 5.924,-15.543 -0.001,-21.467Z" style="fill:#fff;"/><path d="M786.595,578.325c8.12,8.12 8.12,21.308 -0,29.425c-8.12,8.123 -21.308,8.123 -29.428,-0c-8.116,-8.117 -8.117,-21.305 -0,-29.425c8.12,-8.12 21.308,-8.12 29.428,0Zm-3.978,3.979c-5.925,-5.925 -15.547,-5.925 -21.471,-0.001c-5.922,5.925 -5.922,15.547 -0,21.469c5.924,5.927 15.546,5.927 21.47,-0l0.001,-0.001c5.924,-5.922 5.924,-15.543 -0,-21.467Z" style="fill:#fff;"/><path d="M110.483,113.908c-8.123,-8.12 -8.123,-21.304 0.001,-29.425c8.12,-8.12 21.304,-8.12 29.424,0.001c8.12,8.12 8.12,21.304 0,29.424c-8.12,8.124 -21.304,8.124 -29.425,0Zm3.979,-3.978c5.924,5.927 15.543,5.927 21.467,0c5.925,-5.924 5.925,-15.544 0.001,-21.468c-5.925,-5.924 -15.544,-5.924 -21.468,0c-5.927,5.924 -5.927,15.543 -0.001,21.467l0.001,0.001Z" style="fill:#fff;"/><path d="M273.17,113.908c-8.123,-8.12 -8.123,-21.304 0,-29.425c8.12,-8.119 21.304,-8.12 29.427,0l0.001,0.001c8.117,8.12 8.117,21.304 0,29.424c-8.123,8.124 -21.308,8.124 -29.428,0Zm3.979,-3.978c5.924,5.927 15.543,5.927 21.47,0c5.922,-5.924 5.922,-15.543 0,-21.468c-5.927,-5.924 -15.546,-5.924 -21.471,0c-5.926,5.924 -5.927,15.543 0,21.467l0.001,0.001Z" style="fill:#fff;"/><path d="M435.857,113.908c-8.12,-8.12 -8.12,-21.304 -0,-29.424c8.12,-8.12 21.304,-8.121 29.427,-0.001c8.121,8.121 8.121,21.305 0.001,29.425c-8.124,8.124 -21.308,8.124 -29.428,0Zm3.978,-3.978c5.925,5.927 15.544,5.927 21.471,-0c5.925,-5.924 5.925,-15.543 0,-21.468c-5.927,-5.924 -15.546,-5.925 -21.471,0c-5.924,5.924 -5.924,15.544 0,21.468Z" style="fill:#fff;"/><path d="M598.543,113.908c-8.12,-8.12 -8.12,-21.304 0.001,-29.424c8.12,-8.12 21.304,-8.121 29.427,-0.001c8.12,8.121 8.121,21.305 0,29.425c-8.123,8.124 -21.307,8.124 -29.428,0Zm3.979,-3.978c5.925,5.927 15.544,5.927 21.471,-0c5.924,-5.924 5.924,-15.543 0,-21.468c-5.927,-5.924 -15.546,-5.925 -21.471,0c-5.924,5.924 -5.924,15.544 0,21.468Z" style="fill:#fff;"/></g></g></g></svg>