<?xml version="1.0" encoding="UTF-8" standalone="no"?><!DOCTYPE svg PUBLIC "-//W3C//DTD SVG 1.1//EN" "http://www.w3.org/Graphics/SVG/1.1/DTD/svg11.dtd"><svg width="100%" height="100%" viewBox="0 0 260 234" version="1.1" xmlns="http://www.w3.org/2000/svg" xmlns:xlink="http://www.w3.org/1999/xlink" xml:space="preserve" xmlns:serif="http://www.serif.com/" style="fill-rule:evenodd;clip-rule:evenodd;stroke-linejoin:round;stroke-miterlimit:2;"><rect id="Artboard1" x="0" y="0" width="260" height="234" style="fill:none;"/><g><path d="M150.443,95.209l-7.975,34.754l-34.754,-7.975l7.975,-34.755l34.754,7.976Z" style="fill:#fff;"/><path d="M140.474,138.652l-7.975,34.754l-34.754,-7.975l7.975,-34.755l34.754,7.976Z" style="fill:#fff;"/><path d="M130.505,182.095l-7.975,34.754l-34.755,-7.975l7.976,-34.755l34.754,7.976Z" style="fill:#fff;"/><path d="M71.73,33.526l-7.976,34.754l-34.754,-7.975l7.975,-34.754l34.755,7.975Z" style="fill:#fff;"/><path d="M117.178,43.955l-7.976,34.755l-34.754,-7.976l7.975,-34.754l34.755,7.975Z" style="fill:#fff;"/><path d="M78.595,19.605l-2.454,10.694l-10.694,-2.454l2.454,-10.694l10.694,2.454Z" style="fill:#fff;"/><path d="M209.906,49.738l-2.454,10.693l-10.694,-2.454l2.454,-10.693l10.694,2.454Z" style="fill:#fff;"/><path d="M93.287,22.976l-2.454,10.694l-10.694,-2.454l2.454,-10.693l10.694,2.453Z" style="fill:#fff;"/><path d="M224.598,53.109l-2.454,10.694l-10.694,-2.454l2.454,-10.694l10.694,2.454Z" style="fill:#fff;"/><path d="M107.669,85.393l-14.417,62.825l-62.825,-14.417l14.416,-62.825l62.826,14.417Z" style="fill:#fff;"/><path d="M91.718,154.902l-7.975,34.754l-34.754,-7.975l7.975,-34.755l34.754,7.976Z" style="fill:#fff;"/><path d="M134.271,67.577l-3.681,16.04l-16.041,-3.681l3.681,-16.04l16.041,3.681Z" style="fill:#fff;"/><path d="M115.689,87.233l-7.975,34.755l34.754,7.975l7.975,-34.754l-34.754,-7.976Z" style="fill:#fff;"/><path d="M105.72,130.676l-7.975,34.755l34.754,7.975l7.975,-34.754l-34.754,-7.976Z" style="fill:#fff;"/><path d="M95.751,174.119l-7.976,34.755l34.755,7.975l7.975,-34.754l-34.754,-7.976Z" style="fill:#fff;"/><path d="M213.42,66.04l-7.975,34.755l34.754,7.975l7.976,-34.754l-34.755,-7.976Z" style="fill:#fff;"/><path d="M167.972,55.611l-7.975,34.755l34.754,7.975l7.976,-34.754l-34.755,-7.976Z" style="fill:#fff;"/><path d="M158.463,97.049l-14.416,62.825l62.825,14.417l14.417,-62.825l-62.826,-14.417Z" style="fill:#fff;"/><path d="M142.513,166.558l-7.975,34.754l34.754,7.975l7.975,-34.754l-34.754,-7.975Z" style="fill:#fff;"/><path d="M142.291,69.417l-3.681,16.041l16.04,3.681l3.681,-16.041l-16.04,-3.681Z" style="fill:#fff;"/></g></svg>