<?xml version="1.0" encoding="UTF-8" standalone="no"?><!DOCTYPE svg PUBLIC "-//W3C//DTD SVG 1.1//EN" "http://www.w3.org/Graphics/SVG/1.1/DTD/svg11.dtd"><svg width="100%" height="100%" viewBox="0 0 173 135" version="1.1" xmlns="http://www.w3.org/2000/svg" xmlns:xlink="http://www.w3.org/1999/xlink" xml:space="preserve" xmlns:serif="http://www.serif.com/" style="fill-rule:evenodd;clip-rule:evenodd;stroke-linejoin:round;stroke-miterlimit:2;"><g><path d="M171.1,73.6l-26.1,26.1c-1.1,1.1 -2.5,1.7 -4.1,1.7l-138,0c-1.6,0 -2.9,-1.3 -2.9,-2.9l-0,-66c-0,-1.5 0.6,-3 1.7,-4.1l26.1,-26.1c1.1,-1.1 2.6,-1.7 4.1,-1.7l138,0c1.6,0 2.9,1.3 2.9,2.9l0,66c0,1.5 -0.6,3 -1.7,4.1Z" style="fill:#ff8200;"/><path d="M150.5,129.8l-2.3,0l-0,-9.8l2.3,-0l0,9.8Zm-73.1,0l-2.3,0l-0,-9.8l2.3,-0l0,9.8Zm-71.3,-5.8c-0,-0.6 -0,-1.2 -0.4,-1.7c-0.3,-0.3 -0.7,-0.5 -1.3,-0.5c-0.8,0 -1.4,0.4 -1.7,0.8c-0.3,0.5 -0.5,1.2 -0.5,2.5l0,4.7l-2.2,0l0,-13.7l2.3,0l-0,4.8c1,-1 2,-1.1 2.6,-1.1c1.8,0 2.6,0.9 2.9,1.3c0.6,0.9 0.6,2 0.6,2.7l-0,6l-2.3,0l-0,-5.8Zm8.7,6.1c-1,-0 -2.2,-0.3 -3.1,-1.2c-0.9,-0.9 -1,-1.9 -1,-3.2l-0,-5.7l2.3,-0l0,5.6c0,0.6 0,1.3 0.4,1.8c0.3,0.4 0.8,0.7 1.5,0.7c0.7,-0 1.2,-0.3 1.5,-0.7c0.4,-0.5 0.4,-1.2 0.4,-1.8l-0,-5.6l2.3,-0l0,5.7c0,1.3 -0.1,2.3 -1,3.2c-1,0.801 -2.2,1.2 -3.3,1.2Zm11,-8.3c-1.6,0 -2.7,1.4 -2.7,3.1c0,1.7 1.1,3.1 2.7,3.1c1.4,-0 2.8,-1 2.8,-3.1c0,-2.1 -1.4,-3.1 -2.8,-3.1Zm2.6,6.901c-1,1.199 -2.2,1.299 -2.9,1.299c-3,-0 -4.7,-2.5 -4.7,-5.2c-0,-3.2 2.2,-5.1 4.8,-5.1c0.7,-0 2,0.2 2.9,1.4l0,-5.1l2.3,-0l-0,13.701l-2.3,0l-0.1,-1Zm7.3,-5.301l1.2,0.6c0.5,0.3 1,0.5 1.4,0.9c0.5,0.5 0.7,1.1 0.7,1.8c0,0.9 -0.3,1.6 -0.9,2.2c-0.8,0.801 -1.7,1.1 -2.7,1.1c-0.6,-0 -1.4,-0.1 -2.1,-0.6c-0.6,-0.4 -1,-1.1 -1.3,-1.8l1.9,-0.9c0.1,0.3 0.3,0.7 0.5,0.9c0.1,0.1 0.5,0.4 1,0.4c0.3,-0 0.7,-0.1 0.9,-0.3c0.2,-0.2 0.3,-0.5 0.3,-0.8c-0,-0.3 -0.1,-0.5 -0.3,-0.7c-0.3,-0.3 -0.6,-0.4 -1,-0.6l-0.8,-0.4c-0.4,-0.2 -1,-0.5 -1.3,-0.8c-0.5,-0.5 -0.7,-1 -0.7,-1.6c0,-0.8 0.3,-1.6 0.8,-2.1c0.4,-0.5 1.2,-0.9 2.4,-0.9c0.7,0 1.3,0.1 1.8,0.5c0.3,0.2 0.8,0.6 1.1,1.2l-1.7,1.1c-0.2,-0.4 -0.7,-0.8 -1.4,-0.8c-0.3,0 -0.6,0.1 -0.7,0.3c-0.1,0.1 -0.2,0.3 -0.2,0.5c-0,0.3 0.1,0.4 0.3,0.6c0.1,-0.1 0.3,-0 0.8,0.2Zm9.6,-1.6c-1.4,0 -2.9,0.9 -2.9,3.1c0,1.9 1.1,3.1 2.9,3.1c1.8,-0 2.9,-1.2 2.9,-3.1c0,-2.2 -1.5,-3.1 -2.9,-3.1Zm-0,8.3c-2.9,-0 -5.2,-2.2 -5.2,-5.2c-0,-3 2.3,-5.2 5.2,-5.2c2.9,-0 5.2,2.1 5.2,5.2c0,3 -2.3,5.2 -5.2,5.2Zm13,-5.8c-0,-2.5 -0.9,-2.6 -1.8,-2.6c-1,-0 -2.1,0.1 -2.1,3.3l0,4.701l-2.3,0l-0,-9.801l2.3,-0l0,0.9c1,-1.1 2.1,-1.2 2.6,-1.2c1.8,0 2.6,0.9 2.9,1.3c0.4,0.5 0.6,1.2 0.6,2.7l0,6l-2.3,-0l0.1,-5.3Zm13.6,-2.4c-0.5,-0 -1,0.1 -1.4,0.5c-0.6,0.7 -0.6,1.6 -0.6,2.3l0,5.1l-2.3,0l-0,-9.8l2.3,-0l0,0.9c0.3,-0.3 0.6,-0.6 1,-0.8c0.4,-0.3 0.9,-0.3 1.4,-0.3c0.6,0 1.2,0.1 1.8,0.5l-0.9,2.1c-0.6,-0.5 -1.1,-0.5 -1.3,-0.5Zm4.4,-3.2c-0.8,0 -1.5,-0.6 -1.5,-1.5c0,-0.8 0.6,-1.5 1.5,-1.5c0.8,0 1.5,0.6 1.5,1.5c0,0.9 -0.7,1.5 -1.5,1.5Zm2.3,1.3l2.6,-0l2.5,5.6l2.5,-5.6l2.6,-0l-5.1,10.5l-5.1,-10.5Zm17.1,3.6c-0.1,-0.5 -0.3,-1 -0.7,-1.3c-0.3,-0.3 -0.8,-0.6 -1.5,-0.6c-0.8,-0 -1.3,0.3 -1.6,0.6c-0.3,0.3 -0.6,0.8 -0.7,1.3l4.5,0Zm-3.9,3.8c0.5,0.5 1.2,0.6 1.7,0.6c0.6,-0 1.1,-0.1 1.6,-0.5c0.4,-0.3 0.7,-0.7 0.9,-1.1l1.9,1.1c-0.4,0.7 -1,1.4 -1.6,1.8c-0.8,0.5 -1.8,0.7 -2.9,0.7c-1.3,-0 -2.4,-0.299 -3.3,-1.299c-0.9,-0.901 -1.4,-2.301 -1.4,-3.701c-0,-1.5 0.5,-3 1.6,-4c0.8,-0.8 1.9,-1.3 3.3,-1.3c1.6,-0 2.6,0.7 3.1,1.3c1.3,1.3 1.4,3.1 1.4,4.1l-0,0.3l-7,-0c-0.1,0.7 0.2,1.5 0.7,2Zm12.3,-5.5c-0.5,-0 -1,0.1 -1.4,0.5c-0.6,0.7 -0.6,1.6 -0.6,2.3l-0,5.1l-2.3,0l0,-9.8l2.3,-0l-0,0.9c0.3,-0.3 0.6,-0.6 1,-0.8c0.4,-0.3 0.9,-0.3 1.4,-0.3c0.6,0 1.2,0.1 1.8,0.5l-0.9,2.1c-0.7,-0.5 -1.1,-0.5 -1.3,-0.5Zm10.1,7.9l-2.3,0l0,-7.7l-1.7,0l-0,-2.1l1.7,-0l0,-4l2.3,-0l-0,4l1.7,-0l0,2.1l-1.7,0l-0,7.7Zm8,-7.9c-0.5,-0 -1,0.1 -1.4,0.5c-0.6,0.7 -0.6,1.6 -0.6,2.3l-0,5.1l-2.3,0l0,-9.8l2.3,-0l-0,0.9c0.3,-0.3 0.6,-0.6 1,-0.8c0.4,-0.3 0.9,-0.3 1.4,-0.3c0.6,0 1.2,0.1 1.8,0.5l-0.9,2.1c-0.7,-0.5 -1.1,-0.5 -1.3,-0.5Zm7.1,-0.1c-1.6,0 -2.7,1.4 -2.7,3.1c-0,1.7 1.1,3.1 2.7,3.1c1.4,-0 2.8,-1 2.8,-3.1c0,-2.1 -1.3,-3.1 -2.8,-3.1Zm2.6,6.901c-1.001,1.199 -2.2,1.299 -2.9,1.299c-3,-0 -4.7,-2.5 -4.7,-5.2c0,-3.2 2.2,-5.1 4.8,-5.1c0.7,-0 2,0.2 2.9,1.4l0,-1.1l2.3,-0l0,9.8l-2.3,0l0,-1.099l-0.1,0Zm9.1,-6.901c-1.6,0 -2.7,1.4 -2.7,3.1c0,1.7 1.1,3.1 2.7,3.1c1.4,-0 2.8,-1 2.8,-3.1c-0.1,-2.1 -1.4,-3.1 -2.8,-3.1Zm2.6,6.901c-1,1.199 -2.2,1.299 -2.9,1.299c-3,-0 -4.7,-2.5 -4.7,-5.2c0,-3.2 2.2,-5.1 4.8,-5.1c0.7,-0 2,0.2 2.9,1.4l-0,-5.1l2.3,-0l0,13.701l-2.3,0l-0,-1l-0.1,0Zm5.7,-10.001c-0.8,0 -1.5,-0.6 -1.5,-1.5c0,-0.8 0.6,-1.5 1.5,-1.5c0.8,0 1.5,0.6 1.5,1.5c0,0.9 -0.6,1.5 -1.5,1.5Zm9.6,5.6c-0,-2.5 -0.9,-2.6 -1.8,-2.6c-1,-0 -2.1,0.1 -2.1,3.3l0,4.701l-2.3,0l-0,-9.801l2.3,-0l0,0.9c1,-1.1 2.1,-1.2 2.6,-1.2c1.8,0 2.6,0.9 2.9,1.3c0.4,0.5 0.6,1.2 0.6,2.7l0,6l-2.3,-0l0,-5.3l0.1,0Zm10.8,-1.8c-0.6,-0.6 -1.2,-0.7 -1.8,-0.7c-0.6,0 -1.2,0.2 -1.7,0.6c-0.6,0.5 -1,1.4 -1,2.5c-0,1 0.4,1.9 1,2.5c0.4,0.4 1,0.6 1.7,0.6c0.7,-0 1.3,-0.2 1.9,-0.8c0.7,-0.7 0.9,-1.6 0.9,-2.3c-0,-1.1 -0.4,-1.9 -1,-2.4Zm1.5,11.5c-0.6,0.5 -1.6,1 -3.2,1c-1.1,-0 -2.3,-0.3 -3.2,-1.2c-0.7,-0.7 -1.3,-1.9 -1.4,-3l2.2,0c0.1,0.5 0.4,1.2 0.7,1.5c0.3,0.3 0.8,0.7 1.8,0.7c1,-0 1.5,-0.4 1.8,-0.6c0.7,-0.7 0.7,-1.699 0.7,-2.5l0,-1.3c-1,1.3 -2.3,1.4 -3,1.4c-1.3,-0 -2.3,-0.299 -3.2,-1.299c-0.9,-0.901 -1.5,-2.301 -1.5,-3.901c-0,-1.8 0.7,-3 1.4,-3.8c1,-1 2.1,-1.3 3.3,-1.3c1,-0 2.1,0.3 2.9,1.3l0,-1.1l2.3,-0l0,9c0,2.4 -0.3,4 -1.6,5.1Z" style="fill:#e9e9e9;"/><path d="M63.8,72.6l-8.8,-0c-0.6,-0 -1,-0.5 -1,-1l0,-14.2c0,-0.6 -0.5,-1 -1,-1l-12.4,0c-0.6,0 -1,0.5 -1,1l-0,14.2c-0,0.6 -0.5,1 -1,1l-8.8,-0c-0.6,-0 -1,-0.5 -1,-1l-0,-41.2c-0,-0.6 0.5,-1 1,-1l8.8,0c0.6,0 1,0.5 1,1l-0,14.2c-0,0.6 0.5,1 1,1l12.4,-0c0.6,-0 1,-0.5 1,-1l0,-14.2c0,-0.6 0.5,-1 1,-1l8.8,0c0.6,0 1,0.5 1,1l0,41.2c0,0.5 -0.5,1 -1,1Zm33.4,-33.3l-14.4,0l0,10.8l14.4,-0l-0,-10.8Zm11.5,33.3l-9.8,-0c-0.3,-0 -0.7,-0.1 -1,-0.3c-0.3,-0.2 -0.6,-0.4 -0.7,-0.7l-6.5,-11.4c-0.1,-0.2 -0.2,-0.2 -0.4,-0.2l-7.1,-0c-0.2,-0 -0.3,0.1 -0.3,0.3l0,11.1c0,0.8 -0.4,1.2 -1.2,1.2l-8.4,-0c-0.8,-0 -1.2,-0.4 -1.2,-1.2l-0,-40.8c-0,-0.8 0.4,-1.2 1.2,-1.2l27.6,0c1,0 1.9,0.2 2.8,0.6c0.9,0.4 1.6,0.9 2.3,1.5c0.6,0.6 1.2,1.4 1.5,2.3c0.4,0.9 0.6,1.8 0.6,2.8l-0,16.2c-0,1.6 -0.5,3 -1.4,4.2c-0.9,1.3 -2.1,2.1 -3.5,2.6l-0.2,0.1c-0.3,0.1 -0.3,0.2 -0.2,0.4l0.1,0.1l6.6,11.4c0.2,0.3 0.2,0.5 0.1,0.7c-0.3,0.2 -0.5,0.3 -0.9,0.3Zm37.9,-32.4l-9.7,-0c-0.6,-0 -1,0.5 -1,1l-0,30.4c-0,0.6 -0.5,1 -1,1l-8.8,-0c-0.6,-0 -1,-0.5 -1,-1l-0,-30.4c-0,-0.6 -0.5,-1 -1,-1l-9.6,-0c-0.6,-0 -1,-0.5 -1,-1l0,-8.8c0,-0.6 0.5,-1 1,-1l32.2,0c0.6,0 1,0.5 1,1l-0,8.8c-0.1,0.5 -0.6,1 -1.1,1Z" style="fill:#fff;"/><path d="M168.6,97.7l0,-1.1l0.7,-0c0.3,-0 0.5,0.2 0.5,0.5l0,0.1c0,0.3 -0.2,0.5 -0.5,0.5l-0.7,0Zm0,0.6l0.5,-0l0.7,1.3l1,-0l-0.9,-1.5c0.4,-0.2 0.7,-0.5 0.7,-1.1c0,-0.7 -0.4,-1.2 -1.2,-1.2l-1.7,-0l-0,3.8l0.9,-0l0,-1.3Zm0.5,2.3c-1.5,-0 -2.7,-1 -2.7,-2.6l-0,-0.4c-0,-1.6 1.2,-2.6 2.7,-2.6c1.5,0 2.7,1 2.7,2.6l0,0.4c0,1.5 -1.1,2.6 -2.7,2.6Zm0,0.8c2,0 3.7,-1.6 3.7,-3.6c0,-2.1 -1.6,-3.6 -3.7,-3.6c-2.1,0 -3.7,1.6 -3.7,3.6c0.1,2 1.7,3.6 3.7,3.6Z" style="fill:#ff8200;fill-rule:nonzero;"/></g></svg>