<?xml version="1.0" encoding="UTF-8" standalone="no"?><!DOCTYPE svg PUBLIC "-//W3C//DTD SVG 1.1//EN" "http://www.w3.org/Graphics/SVG/1.1/DTD/svg11.dtd"><svg width="100%" height="100%" viewBox="0 0 640 69" version="1.1" xmlns="http://www.w3.org/2000/svg" xmlns:xlink="http://www.w3.org/1999/xlink" xml:space="preserve" xmlns:serif="http://www.serif.com/" style="fill-rule:evenodd;clip-rule:evenodd;stroke-linejoin:round;stroke-miterlimit:2;"><rect id="Artboard1" x="0" y="0" width="640" height="69" style="fill:none;"/><g><path d="M104.1,47.9l-15.1,15.1c-0.6,0.6 -1.5,1 -2.4,1l-79.9,-0c-0.9,-0 -1.7,-0.7 -1.7,-1.7l-0,-38.2c-0,-0.9 0.4,-1.7 1,-2.4l15.1,-15.1c0.6,-0.6 1.5,-1 2.4,-1l79.9,-0c0.9,-0 1.7,0.7 1.7,1.7l-0,38.2c-0,0.9 -0.4,1.7 -1,2.4Z" style="fill:#ff8200;"/><path d="M42,47.3l-5.1,-0c-0.3,-0 -0.6,-0.3 -0.6,-0.6l-0,-8.2c-0,-0.3 -0.3,-0.6 -0.6,-0.6l-7.2,-0c-0.3,-0 -0.6,0.3 -0.6,0.6l-0,8.2c-0,0.3 -0.3,0.6 -0.6,0.6l-5.1,-0c-0.3,-0 -0.6,-0.3 -0.6,-0.6l0,-23.8c0,-0.3 0.3,-0.6 0.6,-0.6l5.1,-0c0.3,-0 0.6,0.3 0.6,0.6l-0,8.2c-0,0.3 0.3,0.6 0.6,0.6l7.2,0c0.3,0 0.6,-0.3 0.6,-0.6l-0,-8.2c-0,-0.3 0.3,-0.6 0.6,-0.6l5.1,-0c0.3,-0 0.6,0.3 0.6,0.6l-0,23.9c-0.1,0.2 -0.3,0.5 -0.6,0.5Zm19.3,-19.3l-8.3,-0l0,6.3l8.3,-0l-0,-6.3Zm6.7,19.3l-5.7,-0c-0.2,-0 -0.4,-0.1 -0.6,-0.2c-0.2,-0.1 -0.3,-0.2 -0.4,-0.4l-3.8,-6.6c0,-0.1 -0.1,-0.1 -0.3,-0.1l-4.1,-0c-0.1,-0 -0.2,0.1 -0.2,0.2l0,6.4c0,0.5 -0.2,0.7 -0.7,0.7l-4.9,-0c-0.5,-0 -0.7,-0.2 -0.7,-0.7l-0,-23.6c-0,-0.5 0.2,-0.7 0.7,-0.7l16,-0c0.6,-0 1.1,0.1 1.6,0.3c0.5,0.2 1,0.5 1.3,0.9c0.4,0.4 0.7,0.8 0.9,1.3c0.2,0.5 0.3,1.1 0.3,1.6l0,9.4c0,0.9 -0.3,1.7 -0.8,2.4c-0.5,0.7 -1.2,1.2 -2.1,1.5l-0.1,0c-0.2,0 -0.2,0.1 -0.1,0.2l-0,0.1l3.8,6.6c0.1,0.2 0.1,0.3 -0,0.4c0.2,0.2 0.1,0.3 -0.1,0.3Zm21.9,-18.8l-5.6,-0c-0.3,-0 -0.6,0.3 -0.6,0.6l-0,17.6c-0,0.3 -0.3,0.6 -0.6,0.6l-5.1,-0c-0.3,-0 -0.6,-0.3 -0.6,-0.6l0,-17.6c0,-0.3 -0.3,-0.6 -0.6,-0.6l-5.6,-0c-0.3,-0 -0.6,-0.3 -0.6,-0.6l-0,-5.1c-0,-0.3 0.3,-0.6 0.6,-0.6l18.6,0c0.3,0 0.6,0.3 0.6,0.6l0,5.1c0.1,0.4 -0.2,0.6 -0.5,0.6Z" style="fill:#fff;"/></g><g><path d="M630.881,10.007l-0,-2.03l1.16,0c0.579,0 0.869,0.29 0.869,0.87l0,0.29c0,0.58 -0.29,0.87 -0.869,0.87l-1.16,-0Zm-0,1.16l1.16,-0l1.449,2.61l1.74,-0l-1.74,-2.9c0.87,-0.29 1.45,-1.16 1.45,-2.03c0,-1.45 -0.87,-2.32 -2.32,-2.32l-3.189,0l-0,6.96l1.74,-0l-0,-2.32l-0.29,-0Zm1.16,4.349c-2.9,0 -5.22,-2.029 -5.22,-4.929l-0,-0.58c-0,-2.9 2.32,-4.93 5.22,-4.93c2.899,0 5.219,2.03 5.219,4.93l0,0.87c0,2.9 -2.32,4.639 -5.219,4.639Zm-0,1.74c3.769,0 6.959,-2.899 6.959,-6.959c0,-4.06 -3.19,-6.96 -6.959,-6.96c-3.77,0 -6.96,2.9 -6.96,6.96c0,4.06 2.9,6.959 6.96,6.959Zm-71.915,33.928l-6.669,-0l-0,-28.418l6.669,-0l0,28.418Zm-211.683,-0l-6.67,-0l0,-28.418l6.67,-0l-0,28.418Zm-206.754,-16.819c-0,-1.74 -0,-3.48 -1.16,-4.93c-0.87,-0.87 -2.03,-1.449 -3.77,-1.449c-2.32,-0 -4.06,0.869 -4.93,2.319c-0.87,1.45 -1.449,3.48 -1.449,7.25l-0,13.629l-6.38,-0l0,-40.017l6.669,-0l0,13.919c2.9,-2.9 5.8,-3.19 7.54,-3.19c5.219,0 7.539,2.61 8.409,3.77c1.74,2.61 1.74,5.799 1.74,7.829l0,17.399l-6.669,-0l-0,-16.529Zm25.228,17.689c-2.9,-0 -6.38,-0.87 -8.99,-3.48c-2.609,-2.61 -2.899,-5.51 -2.899,-9.279l-0,-16.529l6.669,-0l0,16.239c0,1.74 0,3.769 1.16,5.219c0.87,1.16 2.32,2.03 4.35,2.03c1.74,0 3.479,-0.87 4.349,-2.03c1.16,-1.45 1.16,-3.479 1.16,-5.219l0,-16.239l6.67,-0l-0,16.529c-0,3.769 -0.29,6.669 -2.9,9.279c-2.9,2.32 -6.38,3.48 -9.569,3.48Zm31.897,-24.068c-4.639,-0 -7.829,4.059 -7.829,8.989c-0,4.929 3.19,8.989 7.829,8.989c4.06,0 8.12,-2.9 8.12,-8.989c-0,-6.09 -4.06,-8.989 -8.12,-8.989Zm7.54,20.008c-2.9,3.48 -6.38,3.77 -8.41,3.77c-8.699,-0 -13.629,-7.25 -13.629,-15.079c0,-9.279 6.38,-14.789 13.919,-14.789c2.03,0 5.8,0.58 8.41,4.06l-0,-14.789l6.669,-0l0,39.727l-6.669,-0l-0,-2.9l-0.29,-0Zm20.878,-15.369l3.48,1.74c1.45,0.87 2.899,1.45 4.059,2.61c1.45,1.45 2.03,3.19 2.03,5.219c0,2.61 -0.87,4.64 -2.61,6.38c-2.319,2.32 -4.929,3.19 -7.829,3.19c-1.74,-0 -4.06,-0.29 -6.089,-1.74c-1.743,-1.16 -2.9,-3.19 -3.77,-5.22l5.509,-2.61c0.29,0.87 0.87,2.03 1.45,2.61c0.29,0.29 1.45,1.16 2.9,1.16c0.87,0 2.03,-0.29 2.61,-0.87c0.58,-0.58 0.87,-1.45 0.87,-2.32c-0,-0.87 -0.29,-1.45 -0.87,-2.029c-0.87,-0.87 -1.74,-1.16 -2.9,-1.74l-2.32,-1.16c-1.16,-0.58 -2.9,-1.45 -3.769,-2.32c-1.453,-1.45 -2.03,-2.9 -2.03,-4.64c-0,-2.32 0.87,-4.639 2.32,-6.089c1.159,-1.45 3.479,-2.61 6.959,-2.61c2.03,-0 3.77,0.29 5.22,1.45c0.87,0.58 2.319,1.74 3.189,3.48l-4.929,3.189c-0.58,-1.16 -2.03,-2.319 -4.06,-2.319c-0.87,-0 -1.74,0.29 -2.03,0.869c-0.29,0.29 -0.58,0.87 -0.58,1.45c0,0.87 0.29,1.16 0.87,1.74c0.58,-0.29 1.16,0 2.32,0.58Zm28.128,-4.639c-4.06,-0 -8.41,2.609 -8.41,8.989c0,5.509 3.19,8.989 8.41,8.989c5.219,0 8.409,-3.48 8.409,-8.989c0,-6.38 -4.35,-8.989 -8.409,-8.989Zm-0,24.068c-8.41,-0 -15.079,-6.38 -15.079,-15.079c-0,-8.699 6.669,-15.079 15.079,-15.079c8.409,0 15.079,6.09 15.079,15.079c-0,8.699 -6.67,15.079 -15.079,15.079Zm37.697,-16.819c-0,-7.249 -2.61,-7.539 -5.22,-7.539c-2.9,-0 -6.089,0.29 -6.089,9.569l-0,13.629l-6.67,-0l0,-28.128l6.67,-0l-0,2.61c2.9,-3.19 6.089,-3.48 7.539,-3.48c5.22,0 7.54,2.61 8.41,3.77c1.159,1.45 1.739,3.479 1.739,7.829l0,17.399l-6.669,-0l-0,-15.659l0.29,-0Zm39.437,-6.959c-1.45,-0 -2.9,0.289 -4.06,1.449c-1.74,2.03 -1.74,4.64 -1.74,6.67l0,14.789l-6.669,-0l-0,-28.418l6.669,-0l0,2.61c0.87,-0.87 1.74,-1.74 2.9,-2.32c1.16,-0.87 2.61,-0.87 4.06,-0.87c1.74,-0 3.479,0.29 5.219,1.45l-2.899,5.799c-1.74,-1.159 -2.9,-1.159 -3.48,-1.159Zm12.759,-9.28c-2.32,0 -4.35,-1.74 -4.35,-4.349c0,-2.32 1.74,-4.35 4.35,-4.35c2.32,-0 4.349,1.74 4.349,4.35c0,2.609 -2.029,4.349 -4.349,4.349Zm6.669,3.77l7.54,-0l7.249,16.239l7.25,-16.239l7.539,-0l-14.789,30.448l-14.789,-30.448Zm49.586,10.439c-0.29,-1.45 -0.869,-2.9 -2.029,-3.77c-0.87,-0.87 -2.32,-1.739 -4.35,-1.739c-2.32,-0 -3.77,0.869 -4.64,1.739c-0.87,0.87 -1.74,2.32 -2.03,3.77l13.049,0Zm-11.309,11.019c1.45,1.45 3.48,1.74 4.93,1.74c1.74,0 3.19,-0.29 4.64,-1.45c1.159,-0.87 2.029,-2.03 2.609,-3.19l5.51,3.19c-1.16,2.03 -2.9,4.06 -4.64,5.22c-2.32,1.45 -5.219,2.03 -8.409,2.03c-3.77,-0 -6.96,-0.87 -9.569,-3.77c-2.61,-2.61 -4.06,-6.67 -4.06,-10.729c0,-4.35 1.45,-8.7 4.64,-11.599c2.319,-2.32 5.509,-3.77 9.569,-3.77c4.64,0 7.539,2.03 8.989,3.77c3.48,3.769 3.77,8.989 3.77,11.889l-0,0.87l-20.299,-0c0,2.03 0.87,4.349 2.32,5.799Zm35.668,-15.948c-1.45,-0 -2.9,0.289 -4.06,1.449c-1.74,2.03 -1.74,4.64 -1.74,6.67l-0,14.789l-6.669,-0l-0,-28.418l6.669,-0l-0,2.61c0.87,-0.87 1.74,-1.74 2.9,-2.32c1.16,-0.87 2.61,-0.87 4.059,-0.87c1.74,-0 3.48,0.29 5.22,1.45l-3.19,5.799c-1.45,-1.159 -2.609,-1.159 -3.189,-1.159Zm29.287,22.908l-6.669,-0l-0,-22.329l-4.93,0l0,-6.089l4.93,-0l-0,-11.599l6.669,-0l0,11.599l4.93,-0l-0,6.089l-4.93,0l0,22.329Zm23.198,-22.908c-1.449,-0 -2.899,0.289 -4.059,1.449c-1.74,2.03 -1.74,4.64 -1.74,6.67l-0,14.789l-6.67,-0l0,-28.418l6.67,-0l-0,2.61c0.87,-0.87 1.74,-1.74 2.9,-2.32c1.16,-0.87 2.609,-0.87 4.059,-0.87c1.74,-0 3.48,0.29 5.22,1.45l-3.19,5.799c-1.45,-1.159 -2.61,-1.159 -3.19,-1.159Zm20.589,-0.29c-4.64,-0 -7.83,4.059 -7.83,8.989c0,4.929 3.19,8.989 7.83,8.989c4.06,0 8.119,-2.9 8.119,-8.989c0,-6.09 -4.059,-8.989 -8.119,-8.989Zm7.539,20.008c-2.902,3.48 -6.379,3.77 -8.409,3.77c-8.699,-0 -13.629,-7.25 -13.629,-15.079c0,-9.279 6.379,-14.789 13.919,-14.789c2.03,0 5.799,0.58 8.409,4.06l0,-3.19l6.67,-0l-0,28.418l-6.67,-0l0,-3.19l-0.29,-0Zm26.388,-20.008c-4.639,-0 -7.829,4.059 -7.829,8.989c-0,4.929 3.19,8.989 7.829,8.989c4.06,0 8.12,-2.9 8.12,-8.989c-0.29,-6.09 -4.06,-8.989 -8.12,-8.989Zm7.54,20.008c-2.9,3.48 -6.38,3.77 -8.41,3.77c-8.699,-0 -13.629,-7.25 -13.629,-15.079c0,-9.279 6.38,-14.789 13.919,-14.789c2.03,0 5.8,0.58 8.41,4.06l-0,-14.789l6.669,-0l0,39.727l-6.669,-0l-0,-2.9l-0.29,-0Zm16.528,-28.998c-2.319,0 -4.349,-1.74 -4.349,-4.349c-0,-2.32 1.74,-4.35 4.349,-4.35c2.32,-0 4.35,1.74 4.35,4.35c0,2.609 -2.03,4.349 -4.35,4.349Zm27.838,16.239c0,-7.249 -2.61,-7.539 -5.219,-7.539c-2.9,-0 -6.09,0.29 -6.09,9.569l0,13.629l-6.669,-0l-0,-28.128l6.669,-0l0,2.61c2.9,-3.19 6.09,-3.48 7.54,-3.48c5.219,0 7.539,2.61 8.409,3.77c1.16,1.45 1.74,3.479 1.74,7.829l-0,17.399l-6.67,-0l0,-15.659l0.29,-0Zm31.318,-5.22c-1.74,-1.739 -3.48,-2.029 -5.22,-2.029c-1.74,-0 -3.48,0.579 -4.929,1.739c-1.74,1.45 -2.9,4.06 -2.9,7.25c-0,2.9 1.16,5.509 2.9,7.249c1.159,1.16 2.899,1.74 4.929,1.74c2.03,0 3.77,-0.58 5.51,-2.32c2.03,-2.03 2.61,-4.639 2.61,-6.669c-0.29,-3.19 -1.16,-5.51 -2.9,-6.96Zm4.349,33.348c-1.739,1.45 -4.639,2.9 -9.279,2.9c-3.19,-0 -6.669,-0.87 -9.279,-3.48c-2.03,-2.03 -3.77,-5.51 -4.06,-8.699l6.38,-0c0.29,1.449 1.16,3.479 2.03,4.349c0.869,0.87 2.319,2.03 5.219,2.03c2.9,0 4.35,-1.16 5.22,-1.74c2.03,-2.03 2.03,-4.929 2.03,-7.249l-0,-3.77c-2.9,3.77 -6.67,4.06 -8.7,4.06c-3.769,-0 -6.669,-0.87 -9.279,-3.77c-2.61,-2.61 -4.35,-6.67 -4.35,-11.309c0,-5.22 2.03,-8.699 4.06,-11.019c2.9,-2.9 6.089,-3.77 9.569,-3.77c2.9,0 6.09,0.87 8.41,3.77l-0,-2.9l6.669,-0l0,26.098c0,6.669 -0.87,11.309 -4.64,14.499Z" style="fill:#fff;"/></g></svg>