<?xml version="1.0" encoding="UTF-8" standalone="no"?><!DOCTYPE svg PUBLIC "-//W3C//DTD SVG 1.1//EN" "http://www.w3.org/Graphics/SVG/1.1/DTD/svg11.dtd"><svg width="100%" height="100%" viewBox="0 0 414 349" version="1.1" xmlns="http://www.w3.org/2000/svg" xmlns:xlink="http://www.w3.org/1999/xlink" xml:space="preserve" xmlns:serif="http://www.serif.com/" style="fill-rule:evenodd;clip-rule:evenodd;stroke-linejoin:round;stroke-miterlimit:2;"><rect id="Artboard2" x="0" y="0" width="414" height="349" style="fill:none;"/><g><path d="M178.156,34.683l54.449,165.915l-165.915,54.449l-54.449,-165.915l165.915,-54.449Z"/><path d="M339.671,30.225l40.066,122.088l-128.35,42.121l-40.066,-122.088l128.35,-42.121Z"/><path d="M367.556,178.596l34.203,104.222l-109.566,35.957l-34.203,-104.222l109.566,-35.957Z"/><g><path d="M206.143,232.193l12.304,37.494l-37.494,12.305l-12.304,-37.495l37.494,-12.304Z"/><path d="M242.642,231.185l9.055,27.59l-29.005,9.519l-9.054,-27.59l29.004,-9.519Z"/><path d="M248.944,264.715l7.73,23.552l-24.761,8.126l-7.729,-23.552l24.76,-8.126Z"/><g><path d="M212.791,276.58l2.645,8.061l-8.061,2.645l-2.645,-8.061l8.061,-2.645Z"/><path d="M220.638,276.363l1.947,5.932l-6.236,2.046l-1.947,-5.932l6.236,-2.046Z"/><path d="M221.993,283.572l1.662,5.063l-5.324,1.747l-1.661,-5.063l5.323,-1.747Z"/><path d="M215.757,285.618l0.712,2.17l-2.281,0.749l-0.712,-2.17l2.281,-0.749Z"/></g></g></g></svg>